<?xml version="1.0" encoding="UTF-8"?>
<svg width="32" height="32" viewBox="0 0 32 32" fill="none" xmlns="http://www.w3.org/2000/svg">
  <!-- Central clover pattern isolated for favicon -->
  <g transform="translate(16, 16) scale(0.12) translate(-142.5, -559.6)">
    <!-- Top petal -->
    <path d="M194.793 559.647C165.932 559.647 142.5 533.809 142.5 501.983C142.5 470.158 165.932 444.32 194.793 444.32H247.086V501.983C247.086 533.809 223.655 559.647 194.793 559.647Z" fill="#fdfcf5"/>
    <!-- Right petal -->
    <path d="M142.5 617.31C142.5 585.484 165.932 559.647 194.793 559.647C223.655 559.647 247.086 585.484 247.086 617.31V674.973H194.793C165.932 674.973 142.5 649.135 142.5 617.31Z" fill="#fdfcf5"/>
    <!-- Bottom petal -->
    <path d="M90.2068 559.647C119.068 559.647 142.5 585.484 142.5 617.31C142.5 649.135 119.068 674.973 90.2068 674.973H37.9136L37.9136 617.31C37.9136 585.484 61.3453 559.647 90.2068 559.647Z" fill="#fdfcf5"/>
    <!-- Left petal -->
    <path d="M142.5 501.984C142.5 533.809 119.068 559.647 90.2067 559.647C61.3452 559.647 37.9135 533.809 37.9135 501.984V444.32H90.2067C119.068 444.32 142.5 470.158 142.5 501.984Z" fill="#fdfcf5"/>
  </g>
</svg>
