<svg width="285" height="1117" viewBox="0 0 285 1117" fill="none" xmlns="http://www.w3.org/2000/svg">
<g clip-path="url(#clip0_45_344)">
<g opacity="0.29">
<path d="M142.5 40.7381C142.5 8.91279 165.932 -16.9251 194.793 -16.9251C223.655 -16.9251 247.086 8.91279 247.086 40.7381V98.4012L194.793 98.4012C165.932 98.4012 142.5 72.5634 142.5 40.7381Z" fill="#AD1457"/>
<path d="M90.2068 -16.9252C119.068 -16.9252 142.5 8.91271 142.5 40.738C142.5 72.5633 119.068 98.4012 90.2068 98.4012H37.9136L37.9136 40.738C37.9136 8.91271 61.3453 -16.9252 90.2068 -16.9252Z" fill="#AD1457"/>
</g>
<g opacity="0.62">
<path d="M194.793 271.361C165.932 271.361 142.5 245.523 142.5 213.698C142.5 181.872 165.932 156.034 194.793 156.034H247.086V213.698C247.086 245.523 223.655 271.361 194.793 271.361Z" fill="#AD1457"/>
<path d="M142.5 329.024C142.5 297.199 165.932 271.361 194.793 271.361C223.655 271.361 247.086 297.199 247.086 329.024V386.687H194.793C165.932 386.687 142.5 360.849 142.5 329.024Z" fill="#AD1457"/>
<path d="M90.2068 271.361C119.068 271.361 142.5 297.199 142.5 329.024C142.5 360.849 119.068 386.687 90.2068 386.687H37.9136L37.9136 329.024C37.9136 297.199 61.3453 271.361 90.2068 271.361Z" fill="#AD1457"/>
<path d="M142.5 213.698C142.5 245.523 119.068 271.361 90.2067 271.361C61.3452 271.361 37.9135 245.523 37.9135 213.698V156.035H90.2067C119.068 156.035 142.5 181.872 142.5 213.698Z" fill="#AD1457"/>
</g>
<path d="M194.793 559.647C165.932 559.647 142.5 533.809 142.5 501.983C142.5 470.158 165.932 444.32 194.793 444.32H247.086V501.983C247.086 533.809 223.655 559.647 194.793 559.647Z" fill="#AD1457"/>
<path d="M142.5 617.31C142.5 585.484 165.932 559.647 194.793 559.647C223.655 559.647 247.086 585.484 247.086 617.31V674.973H194.793C165.932 674.973 142.5 649.135 142.5 617.31Z" fill="#AD1457"/>
<path d="M90.2068 559.647C119.068 559.647 142.5 585.484 142.5 617.31C142.5 649.135 119.068 674.973 90.2068 674.973H37.9136L37.9136 617.31C37.9136 585.484 61.3453 559.647 90.2068 559.647Z" fill="#AD1457"/>
<path d="M142.5 501.984C142.5 533.809 119.068 559.647 90.2067 559.647C61.3452 559.647 37.9135 533.809 37.9135 501.984V444.32H90.2067C119.068 444.32 142.5 470.158 142.5 501.984Z" fill="#AD1457"/>
<g opacity="0.62">
<path d="M194.793 847.933C165.932 847.933 142.5 822.095 142.5 790.269C142.5 758.444 165.932 732.606 194.793 732.606H247.086V790.269C247.086 822.095 223.655 847.933 194.793 847.933Z" fill="#AD1457"/>
<path d="M142.5 905.596C142.5 873.77 165.932 847.932 194.793 847.932C223.655 847.932 247.086 873.77 247.086 905.596V963.259H194.793C165.932 963.259 142.5 937.421 142.5 905.596Z" fill="#AD1457"/>
<path d="M90.2068 847.933C119.068 847.933 142.5 873.77 142.5 905.596C142.5 937.421 119.068 963.259 90.2068 963.259H37.9136L37.9136 905.596C37.9136 873.77 61.3453 847.933 90.2068 847.933Z" fill="#AD1457"/>
<path d="M142.5 790.269C142.5 822.095 119.068 847.932 90.2067 847.932C61.3452 847.932 37.9135 822.095 37.9135 790.269V732.606H90.2067C119.068 732.606 142.5 758.444 142.5 790.269Z" fill="#AD1457"/>
</g>
<g opacity="0.29">
<path d="M194.793 1136.22C165.932 1136.22 142.5 1110.38 142.5 1078.56C142.5 1046.73 165.932 1020.89 194.793 1020.89H247.086V1078.56C247.086 1110.38 223.655 1136.22 194.793 1136.22Z" fill="#AD1457"/>
<path d="M142.5 1078.56C142.5 1110.38 119.068 1136.22 90.2067 1136.22C61.3452 1136.22 37.9135 1110.38 37.9135 1078.56V1020.89H90.2067C119.068 1020.89 142.5 1046.73 142.5 1078.56Z" fill="#AD1457"/>
</g>
</g>
<defs>
<clipPath id="clip0_45_344">
<rect width="1463" height="285" fill="white" transform="matrix(0 1 -1 0 285 -188)"/>
</clipPath>
</defs>
</svg>
